<svg width="32" height="32" viewBox="0 0 32 32" fill="none" xmlns="http://www.w3.org/2000/svg">
<g id="SignIn-r">
<g id="Vector">
<path d="M12.4571 10.0429C12.2696 9.85536 12.0152 9.75 11.75 9.75C11.4848 9.75 11.2304 9.85536 11.0429 10.0429C10.8554 10.2304 10.75 10.4848 10.75 10.75C10.75 11.0152 10.8554 11.2696 11.0429 11.4571L15.5858 16L11.0433 20.5425C10.8557 20.7301 10.75 20.9848 10.75 21.25C10.75 21.266 10.7504 21.282 10.7512 21.298C10.7631 21.5464 10.8671 21.7813 11.0429 21.9571C11.2304 22.1446 11.4848 22.25 11.75 22.25C12.0152 22.25 12.2696 22.1446 12.4571 21.9571L17.7071 16.7071C17.8946 16.5196 18 16.2652 18 16C18 15.7348 17.8946 15.4804 17.7071 15.2929L12.4571 10.0429Z" fill="white"/>
<path d="M3 17H17C17.5523 17 18 16.5523 18 16C18 15.4477 17.5523 15 17 15H3C2.44772 15 2 15.4477 2 16C2 16.5523 2.44772 17 3 17Z" fill="white"/>
<path d="M24 26H17C16.4477 26 16 26.4477 16 27C16 27.5523 16.4477 28 17 28H24C24.8284 28 25.4142 27.4142 25.4142 27.4142C26 26.8284 26 26 26 26V6C26 5.17157 25.4142 4.58579 25.4142 4.58579C24.8284 4 24 4 24 4H17C16.4477 4 16 4.44772 16 5C16 5.55228 16.4477 6 17 6H24V26Z" fill="white"/>
</g>
</g>
</svg>
