<svg width="36" height="35" viewBox="0 0 36 35" fill="none" xmlns="http://www.w3.org/2000/svg">
<g id="&#240;&#159;&#166;&#134; icon &#34;car&#34;">
<g id="Group">
<path id="Vector" d="M23.6167 2H12.3833C8.39883 2 7.51873 3.98424 7.00666 6.41654L5.19844 15.0737H30.8016L28.9934 6.41654C28.4813 3.98424 27.6012 2 23.6167 2Z" stroke="white" stroke-width="2.70183" stroke-linecap="round" stroke-linejoin="round"/>
<path id="Vector_2" d="M33.986 29.1872C34.162 31.0595 32.6578 32.6757 30.7376 32.6757H27.7292C26.001 32.6757 25.761 31.9396 25.4569 31.0274L25.1369 30.0673C24.6888 28.7552 24.4008 27.8751 22.0965 27.8751H13.9035C11.5992 27.8751 11.2632 28.8672 10.8631 30.0673L10.5431 31.0274C10.239 31.9396 9.999 32.6757 8.27079 32.6757H5.26242C3.34218 32.6757 1.838 31.0595 2.01402 29.1872L2.91013 19.442C3.13416 17.0417 3.59821 15.0735 7.79073 15.0735H28.2093C32.4018 15.0735 32.8658 17.0417 33.0899 19.442L33.986 29.1872Z" stroke="white" stroke-width="2.70183" stroke-linecap="round" stroke-linejoin="round"/>
<path id="Vector_3" d="M5.19844 10.2729H3.59824" stroke="white" stroke-width="2.70183" stroke-linecap="round" stroke-linejoin="round"/>
<path id="Vector_4" d="M32.4018 10.2729H30.8016" stroke="white" stroke-width="2.70183" stroke-linecap="round" stroke-linejoin="round"/>
<path id="Vector_5" d="M18 2.27197V5.47237" stroke="white" stroke-width="2.70183" stroke-linecap="round" stroke-linejoin="round"/>
<path id="Vector_6" d="M15.5997 5.47217H20.4003" stroke="white" stroke-width="2.70183" stroke-linecap="round" stroke-linejoin="round"/>
<path id="Vector_7" d="M8.39883 21.4744H13.1994" stroke="white" stroke-width="2.70183" stroke-linecap="round" stroke-linejoin="round"/>
<path id="Vector_8" d="M22.8006 21.4744H27.6012" stroke="white" stroke-width="2.70183" stroke-linecap="round" stroke-linejoin="round"/>
</g>
</g>
</svg>
