<svg width="32" height="32" viewBox="0 0 32 32" fill="none" xmlns="http://www.w3.org/2000/svg">
<path fill-rule="evenodd" clip-rule="evenodd" d="M6 27.9999H11.5859L11.5875 27.9999C11.5875 27.9999 11.9815 28.0006 12.3461 27.8509C12.3461 27.8509 12.7122 27.7005 12.9929 27.4212L27.9946 12.4195C27.9946 12.4195 28.2755 12.1429 28.4306 11.7723C28.4306 11.7723 28.5858 11.4017 28.5858 10.9999C28.5858 10.9999 28.5858 10.5981 28.4306 10.2275C28.4306 10.2275 28.2755 9.85683 27.9892 9.57489L22.4196 4.00528C22.4196 4.00528 22.1431 3.72443 21.7724 3.56925C21.7724 3.56925 21.4018 3.41406 21 3.41406C21 3.41406 20.5982 3.41406 20.2276 3.56925C20.2276 3.56925 19.8569 3.72443 19.575 4.01072L4.5804 19.0053C4.5804 19.0053 4.29942 19.2876 4.14902 19.6538C4.14902 19.6538 3.99862 20.02 4.00001 20.4159L4 25.9999C4 25.9999 4 26.8283 4.58579 27.4141C4.58579 27.4141 5.17158 27.9999 6 27.9999ZM26.5804 11.0053L11.5858 25.9999H6L6 20.4141L21 5.41406L21.0054 5.4195L26.5858 10.9999L26.5804 11.0053Z" fill="white"/>
<path d="M23.2924 15.7066C23.4799 15.8941 23.7348 16 24 16C24.2652 16 24.5196 15.8946 24.7071 15.7071C24.8946 15.5196 25 15.2652 25 15C25 14.7348 24.8946 14.4804 24.7071 14.2929L17.7072 7.29301C17.5196 7.10536 17.2652 7 17 7C16.7348 7 16.4804 7.10536 16.2929 7.29289C16.1054 7.48043 16 7.73478 16 8C16 8.26522 16.1054 8.51957 16.2929 8.70711L23.2924 15.7066Z" fill="white"/>
</svg>
