<svg width="132" height="129" viewBox="0 0 132 129" fill="none" xmlns="http://www.w3.org/2000/svg">
<circle cx="64.5" cy="64.847" r="64" fill="#C13F8F" fill-opacity="0.15"/>
<mask id="mask0_2_773" style="mask-type:alpha" maskUnits="userSpaceOnUse" x="3" y="0" width="129" height="129">
<circle cx="67.5" cy="64.847" r="64" fill="#5482DB"/>
</mask>
<g mask="url(#mask0_2_773)">
<path d="M24.5 40.847C24.5 36.4288 28.0817 32.847 32.5 32.847H96.5C100.918 32.847 104.5 36.4288 104.5 40.847V128.847H24.5V40.847Z" fill="#C13F8F"/>
</g>
<path d="M77 58.1804C79.3012 58.1804 81.1667 56.3149 81.1667 54.0137C81.1667 51.7125 79.3012 49.847 77 49.847C74.6989 49.847 72.8334 51.7125 72.8334 54.0137C72.8334 56.3149 74.6989 58.1804 77 58.1804Z" fill="white"/>
<path d="M77 58.1804C79.3012 58.1804 81.1667 56.3149 81.1667 54.0137C81.1667 51.7125 79.3012 49.847 77 49.847C74.6989 49.847 72.8334 51.7125 72.8334 54.0137C72.8334 56.3149 74.6989 58.1804 77 58.1804Z" fill="white"/>
<path d="M79.0334 60.3637C77.8667 60.7304 76.5834 60.797 75.25 60.4637C73.0167 59.8804 71.2 58.097 70.5834 55.8637C70.2834 54.7804 70.2667 53.7137 70.45 52.747C70.6667 51.6804 69.9167 50.6804 68.85 50.6804H56.1667C51.1667 50.6804 47.8334 53.1804 47.8334 59.0137V70.6804C47.8334 76.5137 51.1667 79.0137 56.1667 79.0137H72.8334C77.8334 79.0137 81.1667 76.5137 81.1667 70.6804V61.947C81.1667 60.847 80.1 60.0137 79.0334 60.3637ZM70.3667 63.4304L68.4 64.997C67.3 65.8804 65.9 66.3137 64.5 66.3137C63.1 66.3137 61.6834 65.8804 60.6 64.997L55.3834 60.8304C54.85 60.397 54.7667 59.597 55.1834 59.0637C55.6167 58.5304 56.4 58.4304 56.9334 58.8637L62.15 63.0304C63.4167 64.047 65.5667 64.047 66.8334 63.0304L68.8 61.4637C69.3334 61.0304 70.1334 61.1137 70.55 61.6637C70.9834 62.197 70.9 62.997 70.3667 63.4304Z" fill="white"/>
<rect x="41.5" y="88.847" width="45" height="6" rx="3" fill="#C13F8F"/>
<rect x="32.5" y="99.847" width="63" height="6" rx="3" fill="#C13F8F"/>
</svg>
